<?xml version="1.0" encoding="iso-8859-1"?>
<!-- Generator: Adobe Illustrator 19.0.0, SVG Export Plug-In . SVG Version: 6.00 Build 0)  -->
<svg version="1.1" id="Capa_1" xmlns="http://www.w3.org/2000/svg" xmlns:xlink="http://www.w3.org/1999/xlink" x="0px" y="0px"
	 viewBox="0 0 512 512" style="enable-background:new 0 0 512 512;" xml:space="preserve">
<path style="fill:#6A82A1;" d="M372.104,512H139.896c-23.937,0-43.676-18.725-44.938-42.628l-22.271-422
	C72.04,35.099,76.52,22.946,84.978,14.03C93.436,5.113,105.335,0,117.625,0h276.75c12.29,0,24.189,5.114,32.647,14.03
	s12.938,21.068,12.29,33.342l-22.271,422C415.78,493.275,396.041,512,372.104,512z"/>
<g>
	<path style="fill:#52677B;" d="M427.022,14.03C418.564,5.114,406.665,0,394.375,0H256v512h116.104
		c23.937,0,43.676-18.725,44.938-42.628l22.271-422C439.96,35.099,435.48,22.946,427.022,14.03z"/>
	<path style="fill:#52677B;" d="M497,122.535H15c-8.284,0-15-6.716-15-15s6.716-15,15-15h482c8.284,0,15,6.716,15,15
		S505.284,122.535,497,122.535z"/>
</g>
<g>
	<path style="fill:#A4FF89;" d="M326.567,261.167c-23.295-39.992-74.29-52.349-112.883-28.887
		c-7.079,4.304-9.329,13.53-5.025,20.609s13.531,9.327,20.609,5.025c20.892-12.701,48.719-9.154,65.673,10.357
		c-7.101,5.334-7.904,15.274-2.432,21.704l18.731,22.014c7.502,8.824,21.742,6.103,25.563-4.714l9.655-27.267
		C350.789,267.78,338.546,256.183,326.567,261.167z"/>
	<path style="fill:#A4FF89;" d="M280.972,347.644c-20.986,11.651-47.667,7.315-63.912-11.379c0.244-0.184,0.493-0.359,0.729-0.56
		c6.31-5.368,7.072-14.835,1.703-21.145l-18.732-22.014c-7.564-8.89-21.765-6.027-25.563,4.714l-9.655,27.267
		c-4.343,12.266,7.963,23.818,19.897,18.851c22.709,38.974,71.775,51.766,110.093,30.495c7.243-4.021,9.855-13.152,5.834-20.396
		C297.346,346.234,288.214,343.625,280.972,347.644z"/>
</g>
<path style="fill:#3A4C56;" d="M497,92.535H256v30h241c8.284,0,15-6.716,15-15S505.284,92.535,497,92.535z"/>
<g>
	<path style="fill:#59F486;" d="M326.567,261.167C311.234,234.844,283.9,220.499,256,220.455v30.008
		c14.331,0.007,28.641,5.957,38.94,17.809c-7.101,5.333-7.904,15.274-2.432,21.704l18.731,22.014
		c7.502,8.824,21.742,6.103,25.563-4.714l9.655-27.267C350.789,267.78,338.545,256.183,326.567,261.167z"/>
	<path style="fill:#59F486;" d="M301.366,353.479c-4.021-7.244-13.152-9.854-20.395-5.835c-7.812,4.337-16.413,6.455-24.972,6.446
		v29.978c13.464,0.019,27.066-3.273,39.532-10.193C302.775,369.853,305.388,360.722,301.366,353.479z"/>
</g>
<g>
</g>
<g>
</g>
<g>
</g>
<g>
</g>
<g>
</g>
<g>
</g>
<g>
</g>
<g>
</g>
<g>
</g>
<g>
</g>
<g>
</g>
<g>
</g>
<g>
</g>
<g>
</g>
<g>
</g>
</svg>
